<?xml version="1.0" encoding="UTF-8" standalone="no"?>
<svg
   width="400"
   height="400"
   viewBox="0 0 100 100"
   version="1.1"
   id="svg1"
   xmlns="http://www.w3.org/2000/svg"
   xmlns:svg="http://www.w3.org/2000/svg">
  <defs
     id="defs1" />
  <g
     id="layer1">
    <g
       style="fill:none"
       id="g2"
       transform="matrix(0.20284659,0,0,0.20284659,-5.9871053,-5.6594989)">
      <path
         style="opacity:1;fill:#fff301;fill-opacity:1;stroke:#000000;stroke-width:12.3246;stroke-dasharray:none;stroke-opacity:1"
         id="path12"
         transform="rotate(45)"
         d="M 305.02455,24.720563 A 88.125999,255.77512 0 0 1 362.91543,-291.22651 88.125999,255.77512 0 0 1 472.98225,-129.97584 88.125999,255.77512 0 0 1 419.78218,192.8434 88.125999,255.77512 0 0 1 307.44809,45.350593" />
      <path
         style="opacity:1;fill:none;fill-opacity:1;stroke:#000000;stroke-width:9.85967;stroke-linecap:round;stroke-linejoin:miter;stroke-miterlimit:22.7;stroke-dasharray:none;stroke-opacity:1"
         id="path38"
         d="m 402.85291,68.107407 a 146.52261,141.97221 0 0 1 83.65688,70.712233" />
      <path
         style="opacity:1;fill:none;fill-opacity:1;stroke:#000000;stroke-width:9.85967;stroke-linecap:round;stroke-linejoin:miter;stroke-miterlimit:22.7;stroke-dasharray:none;stroke-opacity:1"
         id="path39"
         d="m 342.11584,101.21014 a 196.46098,190.3597 0 0 1 112.16913,94.81263" />
      <path
         style="opacity:1;fill:none;fill-opacity:1;stroke:#000000;stroke-width:10.9327;stroke-linecap:round;stroke-linejoin:miter;stroke-miterlimit:22.7;stroke-dasharray:none;stroke-opacity:1"
         id="path40"
         d="M 280.79927,148.07199 A 217.84163,211.07635 0 0 1 411.59559,260.33507" />
      <path
         style="opacity:1;fill:none;fill-opacity:1;stroke:#000000;stroke-width:10.9327;stroke-linecap:round;stroke-linejoin:miter;stroke-miterlimit:22.7;stroke-dasharray:none;stroke-opacity:1"
         id="path41"
         d="m 230.8134,200.2654 a 217.84163,211.07635 0 0 1 121.18179,93.27714" />
      <path
         style="opacity:1;fill:none;fill-opacity:1;stroke:#000000;stroke-width:10.9327;stroke-linecap:round;stroke-linejoin:miter;stroke-miterlimit:22.7;stroke-dasharray:none;stroke-opacity:1"
         id="path42"
         d="m 193.88586,257.74522 a 217.84163,211.07635 0 0 1 83.44955,58.44055" />
      <path
         style="opacity:1;fill:none;fill-opacity:1;stroke:#000000;stroke-width:9.85967;stroke-linecap:round;stroke-linejoin:miter;stroke-miterlimit:22.7;stroke-dasharray:none;stroke-opacity:1"
         d="M 203.29071,288.00248 C 299.8978,166.64642 335.31006,136.13894 478.58755,55.33193"
         id="path45" />
      <path
         style="opacity:1;fill:none;fill-opacity:1;stroke:#000000;stroke-width:9.85967;stroke-linecap:round;stroke-linejoin:miter;stroke-miterlimit:22.7;stroke-dasharray:none;stroke-opacity:1"
         d="M 221.60213,326.87487 C 342.65353,207.72131 489.52037,61.061172 489.52037,61.061172"
         id="path46" />
      <path
         style="opacity:1;fill:none;fill-opacity:1;stroke:#000000;stroke-width:9.85967;stroke-linecap:round;stroke-linejoin:miter;stroke-miterlimit:22.7;stroke-dasharray:none;stroke-opacity:1"
         d="M 304.29647,314.04304 C 393.16254,233.27928 421.59999,213.61255 497.93725,72.568914"
         id="path47" />
      <path
         style="opacity:1;fill:#00cb0f;fill-opacity:1;stroke:#000000;stroke-width:12.3246;stroke-linecap:round;stroke-linejoin:round;stroke-miterlimit:22.7;stroke-dasharray:none;stroke-opacity:1"
         d="m 56.455529,464.31663 c -5.56172,7.54687 -11.708335,14.50886 -19.137029,20.18876 7.233612,9.90991 13.067688,19.92748 32.032588,28.93499 13.424524,-10.52865 13.088093,-13.03008 15.938396,-17.39044"
         id="path50" />
      <path
         style="opacity:1;fill:#00cb0f;fill-opacity:1;stroke:#000000;stroke-width:12.3246;stroke-linecap:round;stroke-linejoin:miter;stroke-miterlimit:22.7;stroke-dasharray:none;stroke-opacity:1"
         d="m 223.83937,174.87363 c 21.83708,-15.27607 -41.66885,75.57412 -1.21711,153.41515 70.46833,-22.93694 184.85996,-55.96217 189.18328,-47.3018 8.04961,9.32962 -244.16117,242.3333 -320.761234,216.74349 C 9.2392392,470.40183 31.030561,302.21019 223.83937,174.87363 Z"
         id="path48" />
      <path
         style="opacity:1;fill:none;fill-opacity:1;stroke:#000000;stroke-width:12.3246;stroke-linecap:round;stroke-linejoin:miter;stroke-miterlimit:22.7;stroke-dasharray:none;stroke-opacity:1"
         d="M 77.552842,489.20097 C 84.26774,485.87457 250.20275,402.38772 219.71193,323.03289"
         id="path49" />
    </g>
  </g>
</svg>
